<svg width="187" height="37" viewBox="0 0 187 37" fill="none" xmlns="http://www.w3.org/2000/svg">

<path d="M42 23L39.8 22.8C38.1 22.7 37.5 22 37.5 20.8C37.5 19.4 38.5 18.6 40.5 18.6C41.8 18.5 43.1 18.9 44.1 19.7L45.4 18.4C44.0072 17.398 42.313 16.9039 40.6 17C37.7 17 35.7 18.5 35.7 20.9C35.7 23.1 37.1 24.3 39.7 24.5L41.9 24.7C43.5 24.8 44.1 25.5 44.1 26.7C44.1 28.3 42.7 29.1 40.5 29.1C38.9 29.2 37.4 28.6 36.3 27.5L35 28.8C36.5 30.2 38.5 30.8 40.5 30.7C43.7 30.7 46 29.2 46 26.6C46 24 44.4 23.2 42 23ZM57.8 16.9C55.6 16.9 54.3 17.3 53.1 18.8L54.4 20.1C54.7767 19.5644 55.2924 19.1417 55.8915 18.8774C56.4906 18.6131 57.1504 18.5172 57.8 18.6C60.3 18.6 61.2 19.6 61.2 21.5V22.8H57.2C54.2 22.8 52.6 24.3 52.6 26.7C52.6 27.7 52.9 28.7 53.6 29.4C54.4 30.3 55.5 30.6 57.4 30.6C58.8 30.7 60.3 30.2 61.3 29.2V30.5H63.3V21.4C63.2 18.5 61.4 16.9 57.8 16.9ZM61.2 25.8C61.3 26.6 61.1 27.5 60.5 28.1C60.0862 28.4441 59.6072 28.7012 59.0918 28.8558C58.5763 29.0105 58.0349 29.0595 57.5 29C55.4 29 54.4 28.3 54.4 26.7C54.4 25.1 55.4 24.3 57.4 24.3H61.2V25.8ZM70.9 18.7C72.1 18.7 73.3 19.2 74 20.2L75.3 18.9C74.7724 18.2478 74.1 17.7274 73.3363 17.3803C72.5725 17.0331 71.7384 16.8687 70.9 16.9C67.5 16.9 65 19.2 65 23.8C65 28.4 67.6 30.7 70.9 30.7C72.6 30.8 74.2 30 75.3 28.7L74 27.4C73.3 28.4 72.1 28.9 70.9 28.9C69.7 29 68.5 28.4 67.8 27.4C67.1 26.3 66.8 25.1 66.9 23.8C66.8 22.5 67.1 21.3 67.8 20.2C68.5 19.2 69.7 18.6 70.9 18.7ZM87.7 17.1H85.3L79.2 23V11.1H77.2V30.5H79.2V25.6L81.6 23.2L86.1 30.5H88.5L82.9 21.9L87.7 17.1ZM96.9 16.9C95.3 16.9 93.7 17.4 92.6 18.6C91.3 19.9 91 21.6 91 24C91 26.5 91.3 28.1 92.6 29.4C93.7547 30.509 95.2991 31.1196 96.9 31.1C98.5 31.2 100.1 30.6 101.2 29.4C102.5 28.1 102.8 26.5 102.8 24C102.8 21.5 102.5 20 101.2 18.6C100.654 18.0159 99.9848 17.5605 99.2412 17.2665C98.4975 16.9725 97.6979 16.8473 96.9 16.9ZM98.6 27.4C97.7 28.2 96.3 28.2 95.4 27.4C94.7 26.7 94.6 25.4 94.6 24C94.6 22.6 94.7 21.3 95.4 20.6C96.3 19.8 97.7 19.8 98.6 20.6C99.3 21.3 99.4 22.6 99.4 24C99.4 25.5 99.3 26.7 98.6 27.4ZM112.2 17L109.4 25.6L106.6 17H102.9L108.1 31H110.8L115.9 17H112.2ZM121.8 17C118.2 17 115.7 19.5 115.7 24C115.7 29.7 118.9 31.2 122.2 31.2C124.2 31.3 126.2 30.5 127.5 29L125.4 27C124.6 27.8 123.4 28.3 122.2 28.2C121.437 28.2292 120.691 27.9662 120.115 27.4644C119.539 26.9627 119.176 26.2601 119.1 25.5V25.1H127.8V23.5C127.9 19.7 125.7 16.9 121.8 16.9V17ZM119.1 22.7L119.4 21.2C119.8 20.3 120.7 19.8 121.7 19.8C122.7 19.8 123.6 20.3 124 21.2L124.3 22.7H119.1ZM132.4 18.4V17.1H129V31.1H132.5V22.7C132.5 21.4 133.3 20.3 134.6 20.1H134.8C135.5 20.1 136.2 20.4 136.6 20.9L139.2 18.3C138.793 17.8636 138.296 17.5211 137.744 17.2966C137.191 17.0721 136.596 16.9708 136 17C134.7 17 133.4 17.4 132.5 18.4H132.4ZM140 15.6V31H143.5V20H146.1V17.3H143.5V15.8C143.5 15.2 143.8 14.6 144.5 14.5H146V11.5H144C143.488 11.4867 142.978 11.5745 142.5 11.7583C142.021 11.9421 141.584 12.2183 141.213 12.5712C140.841 12.9241 140.543 13.3467 140.335 13.8149C140.127 14.2832 140.013 14.7878 140 15.3V15.6ZM160.3 16.9C158.7 16.9 157.1 17.4 156 18.6C154.7 19.9 154.4 21.6 154.4 24C154.4 26.5 154.7 28.1 156 29.4C157.155 30.509 158.699 31.1196 160.3 31.1C161.9 31.2 163.5 30.6 164.6 29.4C165.9 28.1 166.2 26.5 166.2 24C166.2 21.5 165.9 20 164.6 18.6C164.054 18.0159 163.385 17.5605 162.641 17.2665C161.898 16.9725 161.098 16.8473 160.3 16.9ZM162 27.4C161.1 28.2 159.7 28.2 158.8 27.4C158.1 26.7 158 25.4 158 24C158 22.6 158.1 21.3 158.8 20.6C159.7 19.8 161.1 19.8 162 20.6C162.7 21.3 162.8 22.6 162.8 24C162.8 25.5 162.7 26.7 162 27.4ZM182.7 17L180.4 25.6L177.5 17H175L172.2 25.7L169.9 17.1H166.2L170.5 31.1H173.4L176.3 22.3L179.2 31.1H182.2L186.5 17.1H182.7V17ZM151.5 26.8V11.6H148V27C147.973 27.4992 148.045 27.9988 148.211 28.4702C148.378 28.9416 148.636 29.3755 148.97 29.747C149.304 30.1186 149.709 30.4206 150.16 30.6356C150.611 30.8506 151.101 30.9744 151.6 31H154.1V28H152.8C152.2 28.1 151.7 27.8 151.5 27.2V26.8ZM52.7 17.4H49V13H47V26.9C47 28.9 48.1 30.5 50.4 30.5H51.8V28.8H50.8C49.5 28.8 49 28.1 49 26.8V19.1H50.9L52.7 17.4Z" fill="#222426"/>
<path d="M26 33V24H30V37H0V24H4V33H26Z" fill="#BCBBBB"/>
<path d="M23 26L23.8 23L7.7 19.7L7 23L23 26ZM9.2 15.2L24.2 22.2L25.6 19.2L10.6 12.2L9.2 15.2ZM13.4 7.8L26 18.4L28.1 15.9L15.4 5.3L13.3 7.8H13.4ZM21.5 0L18.8 2L28.7 15.3L31.4 13.3L21.5 0ZM7 30H23V27H7V30Z" fill="#F48024"/>
</svg>
