<svg width="26" height="26" viewBox="0 0 26 26" fill="none" xmlns="http://www.w3.org/2000/svg">
<g clip-path="url(#clip0_407_65)">
<path d="M14.8 3C14.2725 3.00751 13.7693 3.22317 13.4 3.6L3.40001 13.6C3.03355 13.9739 2.82829 14.4765 2.82829 15C2.82829 15.5235 3.03355 16.0261 3.40001 16.4L11.6 24.6C12.4 25.4 13.6 25.4 14.4 24.6L24.4 14.6C24.8 14.2 25 13.7 25 13.2V5C25 4.46957 24.7893 3.96086 24.4142 3.58579C24.0391 3.21071 23.5304 3 23 3H14.8ZM20 10C19.4696 10 18.9609 9.78929 18.5858 9.41421C18.2107 9.03914 18 8.53043 18 8C18 7.46957 18.2107 6.96086 18.5858 6.58579C18.9609 6.21071 19.4696 6 20 6C20.5304 6 21.0391 6.21071 21.4142 6.58579C21.7893 6.96086 22 7.46957 22 8C22 8.53043 21.7893 9.03914 21.4142 9.41421C21.0391 9.78929 20.5304 10 20 10Z" fill="#0A95FF"/>
<path opacity="0.5" d="M13 0C12.4725 0.0075141 11.9693 0.223172 11.6 0.6L1.6 10.6C1.23355 10.9739 1.02829 11.4765 1.02829 12C1.02829 12.5235 1.23355 13.0261 1.6 13.4C1.7 13.2 1.9 12.8 2.2 12.6L12.2 2.6C12.5693 2.22317 13.0725 2.00751 13.6 2H23.2C23.2 1.46957 22.9893 0.960859 22.6142 0.585786C22.2391 0.210714 21.7304 0 21.2 0L13 0Z" fill="#0A95FF"/>
</g>
</svg>
