<svg width="196" height="196" viewBox="0 0 196 196" fill="none" xmlns="http://www.w3.org/2000/svg">
<path opacity="0.07" d="M143.05 18.44C100.21 4.5 55.18 11.8 30.5 34.5C5.5 57.5 2.62 91.31 6.5 106C10.38 120.69 26.84 171 56 177C85.16 183 146.25 191.13 177.01 154.2C207.77 117.28 180.7 30.7 143.05 18.44ZM107.17 33.15L165.3 133.85C166.129 135.284 166.566 136.911 166.566 138.567C166.567 140.224 166.131 141.851 165.303 143.285C164.475 144.72 163.283 145.911 161.848 146.738C160.414 147.566 158.786 148.001 157.13 148H40.87C39.2137 148.001 37.5863 147.566 36.1516 146.738C34.7168 145.911 33.5254 144.72 32.6972 143.285C31.869 141.851 31.4332 140.224 31.4337 138.567C31.4342 136.911 31.871 135.284 32.7 133.85L90.83 33.15C91.6572 31.7149 92.8478 30.523 94.2821 29.6942C95.7163 28.8655 97.3435 28.4291 99 28.4291C100.656 28.4291 102.284 28.8655 103.718 29.6942C105.152 30.523 106.343 31.7149 107.17 33.15Z" fill="black"/>
<path opacity="0.2" d="M111.44 41.15C110.789 40.0179 109.85 39.0776 108.72 38.4237C107.589 37.7699 106.306 37.4256 105 37.4256C103.694 37.4256 102.411 37.7699 101.28 38.4237C100.15 39.0776 99.2114 40.0179 98.56 41.15L40.42 141.85C39.7664 142.98 39.4221 144.262 39.4217 145.568C39.4213 146.873 39.7648 148.156 40.4177 149.286C41.0707 150.417 42.0099 151.355 43.1408 152.007C44.2718 152.659 45.5546 153.001 46.86 153H163.14C168.86 153 172.44 146.8 169.58 141.85L111.44 41.15ZM109 126.5C109 129.02 107.999 131.436 106.218 133.218C104.436 134.999 102.02 136 99.5 136C96.9804 136 94.5641 134.999 92.7825 133.218C91.0009 131.436 90 129.02 90 126.5C90 123.98 91.0009 121.564 92.7825 119.782C94.5641 118.001 96.9804 117 99.5 117C102.02 117 104.436 118.001 106.218 119.782C107.999 121.564 109 123.98 109 126.5ZM92 62.5C92 60.5109 92.7902 58.6032 94.1967 57.1967C95.6032 55.7902 97.5109 55 99.5 55C101.489 55 103.397 55.7902 104.803 57.1967C106.21 58.6032 107 60.5109 107 62.5V103.5C107 105.489 106.21 107.397 104.803 108.803C103.397 110.21 101.489 111 99.5 111C97.5109 111 95.6032 110.21 94.1967 108.803C92.7902 107.397 92 105.489 92 103.5V62.5ZM58.82 39.93C58.0068 40.3739 57.4028 41.1221 57.1404 42.0107C56.8779 42.8992 56.9785 43.8555 57.42 44.67L62.49 54C62.9342 54.8155 63.6843 55.4212 64.575 55.6838C65.4658 55.9463 66.4245 55.8442 67.24 55.4C68.0555 54.9558 68.6612 54.2057 68.9238 53.3149C69.1863 52.4242 69.0842 51.4655 68.64 50.65L63.57 41.34C63.3502 40.936 63.0529 40.5793 62.6952 40.2903C62.3375 40.0013 61.9263 39.7856 61.4851 39.6556C61.044 39.5256 60.5816 39.4838 60.1243 39.5326C59.667 39.5814 59.2238 39.7198 58.82 39.94V39.93ZM37.65 52.02C36.8989 51.5292 36.3649 50.7686 36.1585 49.8954C35.952 49.0222 36.0888 48.103 36.5406 47.3278C36.9924 46.5525 37.7247 45.9804 38.5862 45.7296C39.4477 45.4788 40.3727 45.5684 41.17 45.98L60.26 57.1C60.6734 57.323 61.0377 57.6269 61.3312 57.9936C61.6247 58.3604 61.8414 58.7824 61.9683 59.2347C62.0952 59.6869 62.1298 60.1601 62.07 60.626C62.0103 61.0919 61.8573 61.541 61.6203 61.9465C61.3833 62.3521 61.0671 62.7058 60.6905 62.9865C60.3139 63.2673 59.8847 63.4693 59.4283 63.5807C58.972 63.6921 58.4979 63.7104 58.0343 63.6347C57.5708 63.559 57.1272 63.3908 56.73 63.14L37.65 52.02ZM151.49 66.67C151.91 65.8565 151.994 64.9109 151.725 64.0359C151.456 63.1609 150.855 62.4262 150.05 61.9893C149.246 61.5524 148.302 61.4481 147.422 61.6987C146.541 61.9494 145.794 62.535 145.34 63.33L140.26 72.64C139.816 73.4555 139.714 74.4141 139.976 75.3049C140.239 76.1957 140.844 76.9458 141.66 77.39C142.476 77.8342 143.434 77.9363 144.325 77.6738C145.216 77.4112 145.966 76.8055 146.41 75.99L151.49 66.67ZM172.52 69.24C172.986 70.0412 173.114 70.9944 172.878 71.8905C172.642 72.7865 172.06 73.5524 171.26 74.02L152.17 85.15C151.773 85.4097 151.327 85.5858 150.859 85.6676C150.391 85.7495 149.912 85.7354 149.45 85.6262C148.988 85.5169 148.553 85.3149 148.172 85.0323C147.79 84.7497 147.471 84.3925 147.231 83.9824C146.992 83.5723 146.839 83.1178 146.782 82.6466C146.724 82.1755 146.762 81.6975 146.895 81.2417C147.028 80.786 147.252 80.3619 147.553 79.9955C147.855 79.629 148.228 79.3277 148.65 79.11L167.73 67.98C168.127 67.7479 168.566 67.5964 169.022 67.5341C169.478 67.4718 169.941 67.5 170.386 67.6171C170.831 67.7341 171.249 67.9376 171.615 68.2161C171.981 68.4946 172.288 68.8425 172.52 69.24ZM169.2 95.52C169.144 95.9764 168.999 96.4173 168.773 96.8176C168.547 97.2179 168.244 97.5698 167.882 97.853C167.52 98.1362 167.105 98.3454 166.662 98.4684C166.219 98.5914 165.756 98.6259 165.3 98.57L151.57 96.87C151.114 96.8135 150.673 96.6677 150.273 96.4409C149.873 96.2141 149.522 95.9108 149.239 95.5481C148.956 95.1855 148.747 94.7708 148.625 94.3276C148.503 93.8843 148.469 93.4213 148.525 92.965C148.581 92.5087 148.727 92.0679 148.954 91.6679C149.181 91.2679 149.484 90.9165 149.847 90.6338C150.209 90.351 150.624 90.1424 151.067 90.02C151.511 89.8975 151.974 89.8635 152.43 89.92L166.15 91.62C166.606 91.6757 167.047 91.8208 167.448 92.0469C167.848 92.2731 168.2 92.5759 168.483 92.9381C168.766 93.3003 168.975 93.7147 169.098 94.1577C169.221 94.6007 169.256 95.0636 169.2 95.52ZM39.7 73.52C39.7557 73.9773 39.901 74.4192 40.1279 74.8202C40.3547 75.2212 40.6584 75.5735 41.0217 75.8569C41.3849 76.1403 41.8006 76.3491 42.2447 76.4715C42.6889 76.5939 43.1529 76.6273 43.61 76.57L57.33 74.87C58.2516 74.7573 59.0907 74.2831 59.6627 73.5517C60.2347 72.8203 60.4927 71.8916 60.38 70.97C60.2673 70.0484 59.7931 69.2093 59.0617 68.6373C58.3303 68.0653 57.4016 67.8073 56.48 67.92L42.75 69.62C41.8301 69.7349 40.9933 70.2101 40.4234 70.9413C39.8535 71.6724 39.5969 72.5999 39.71 73.52H39.7Z" fill="black"/>
<path d="M149.37 17L154 21.5L149.5 26L145 21.5L149.37 17ZM158.29 162L167.58 171.29L158.28 180.58L149 171.28L158.29 162ZM155.19 171.29L158.29 174.39L161.39 171.29L158.29 168.19L155.19 171.29ZM99.5 136C100.748 136 101.983 135.754 103.135 135.277C104.288 134.799 105.335 134.1 106.218 133.218C107.1 132.335 107.799 131.288 108.277 130.135C108.754 128.983 109 127.748 109 126.5C109 125.252 108.754 124.017 108.277 122.865C107.799 121.712 107.1 120.665 106.218 119.782C105.335 118.9 104.288 118.201 103.135 117.723C101.983 117.246 100.748 117 99.5 117C96.9804 117 94.5641 118.001 92.7825 119.782C91.0009 121.564 90 123.98 90 126.5C90 129.02 91.0009 131.436 92.7825 133.218C94.5641 134.999 96.9804 136 99.5 136ZM99.5 132C98.0413 132 96.6424 131.421 95.6109 130.389C94.5795 129.358 94 127.959 94 126.5C94 125.041 94.5795 123.642 95.6109 122.611C96.6424 121.579 98.0413 121 99.5 121C100.959 121 102.358 121.579 103.389 122.611C104.421 123.642 105 125.041 105 126.5C105 127.959 104.421 129.358 103.389 130.389C102.358 131.421 100.959 132 99.5 132ZM99.5 55C97.5109 55 95.6032 55.7902 94.1967 57.1967C92.7902 58.6032 92 60.5109 92 62.5V103.5C92 105.489 92.7902 107.397 94.1967 108.803C95.6032 110.21 97.5109 111 99.5 111C101.489 111 103.397 110.21 104.803 108.803C106.21 107.397 107 105.489 107 103.5V62.5C107 60.5109 106.21 58.6032 104.803 57.1967C103.397 55.7902 101.489 55 99.5 55ZM96 62.5C96 61.5717 96.3687 60.6815 97.0251 60.0251C97.6815 59.3688 98.5717 59 99.5 59C100.428 59 101.318 59.3688 101.975 60.0251C102.631 60.6815 103 61.5717 103 62.5V103.5C103 104.428 102.631 105.318 101.975 105.975C101.318 106.631 100.428 107 99.5 107C98.5717 107 97.6815 106.631 97.0251 105.975C96.3687 105.318 96 104.428 96 103.5V62.5ZM90.83 33.15C91.6572 31.7149 92.8478 30.523 94.2821 29.6942C95.7163 28.8655 97.3435 28.4291 99 28.4291C100.656 28.4291 102.284 28.8655 103.718 29.6942C105.152 30.523 106.343 31.7149 107.17 33.15L165.3 133.85C166.129 135.284 166.566 136.911 166.566 138.567C166.567 140.224 166.131 141.851 165.303 143.285C164.475 144.72 163.283 145.911 161.848 146.738C160.414 147.566 158.786 148.001 157.13 148H40.87C39.2137 148.001 37.5863 147.566 36.1516 146.738C34.7168 145.911 33.5254 144.72 32.6972 143.285C31.869 141.851 31.4332 140.224 31.4337 138.567C31.4342 136.911 31.871 135.284 32.7 133.85L90.83 33.15ZM103.7 35.15C103.223 34.3257 102.538 33.6414 101.713 33.1656C100.888 32.6898 99.9523 32.4394 99 32.4394C98.0477 32.4394 97.1121 32.6898 96.2872 33.1656C95.4622 33.6414 94.7769 34.3257 94.3 35.15L36.17 135.85C35.6923 136.675 35.4404 137.612 35.4396 138.566C35.4389 139.519 35.6893 140.457 36.1658 141.283C36.6422 142.109 37.3278 142.795 38.1536 143.272C38.9794 143.749 39.9163 144 40.87 144H157.13C161.31 144 163.93 139.47 161.83 135.85L103.7 35.15ZM13 112C13.5304 112 14.0391 112.211 14.4142 112.586C14.7893 112.961 15 113.47 15 114V118H19C19.5304 118 20.0391 118.211 20.4142 118.586C20.7893 118.961 21 119.47 21 120C21 120.53 20.7893 121.039 20.4142 121.414C20.0391 121.789 19.5304 122 19 122H15V126C15 126.53 14.7893 127.039 14.4142 127.414C14.0391 127.789 13.5304 128 13 128C12.4696 128 11.9609 127.789 11.5858 127.414C11.2107 127.039 11 126.53 11 126V122H7C6.46957 122 5.96086 121.789 5.58579 121.414C5.21071 121.039 5 120.53 5 120C5 119.47 5.21071 118.961 5.58579 118.586C5.96086 118.211 6.46957 118 7 118H11V114C11 112.9 11.9 112 13 112Z" fill="black"/>
</svg>
