<svg width="18" height="18" viewBox="0 0 18 18" xmlns="http://www.w3.org/2000/svg">
<path d="M3 1C2.46957 1 1.96086 1.21071 1.58579 1.58579C1.21071 1.96086 1 2.46957 1 3V15C1 16.1 1.9 17 3 17H15C15.5304 17 16.0391 16.7893 16.4142 16.4142C16.7893 16.0391 17 15.5304 17 15V3C17 2.46957 16.7893 1.96086 16.4142 1.58579C16.0391 1.21071 15.5304 1 15 1H3ZM9.55 17V10.8H7.46V8.4H9.55V6.61C9.55 4.54 10.81 3.41 12.65 3.41C13.53 3.41 14.29 3.48 14.52 3.51V5.67H13.23C12.23 5.67 12.04 6.15 12.04 6.85V8.4H14.43L14.12 10.82H12.04V17H9.54H9.55Z" fill="#fff"/>
</svg>
