<svg width="18" height="18" viewBox="0 0 18 18" xmlns="http://www.w3.org/2000/svg">
<path d="M9 1C7.1001 0.999577 5.26206 1.67533 3.81488 2.90631C2.36771 4.13729 1.40587 5.84313 1.10152 7.7185C0.797184 9.59386 1.17021 11.5163 2.15383 13.1418C3.13746 14.7672 4.66747 15.9896 6.47 16.59C6.87 16.66 7.02 16.42 7.02 16.21L7.01 14.72C5 15.09 4.48 14.23 4.32 13.78C4.23 13.55 3.84 12.84 3.5 12.65C3.22 12.5 2.82 12.13 3.49 12.12C4.12 12.11 4.57 12.7 4.72 12.94C5.44 14.15 6.59 13.81 7.05 13.6C7.12 13.08 7.33 12.73 7.56 12.53C5.78 12.33 3.92 11.64 3.92 8.58C3.92 7.71 4.23 6.99 4.74 6.43C4.66 6.23 4.38 5.41 4.82 4.31C4.82 4.31 5.49 4.1 7.02 5.13C8.32819 4.76383 9.7118 4.76383 11.02 5.13C12.55 4.09 13.22 4.31 13.22 4.31C13.66 5.41 13.38 6.23 13.3 6.43C13.81 6.99 14.12 7.7 14.12 8.58C14.12 11.65 12.25 12.33 10.47 12.53C10.76 12.78 11.01 13.26 11.01 14.01L11 16.21C11 16.42 11.15 16.67 11.55 16.59C13.3419 15.978 14.8591 14.7509 15.8323 13.1266C16.8055 11.5022 17.1717 9.58565 16.8661 7.71692C16.5604 5.84819 15.6026 4.14817 14.1626 2.91854C12.7226 1.68891 10.8935 1.00919 9 1Z" fill="#fff"/>
</svg>
