<svg width="16" height="16" viewBox="0 0 16 16" fill="none" xmlns="http://www.w3.org/2000/svg">
<path d="M8 16C5.87827 16 3.84344 15.1571 2.34315 13.6569C0.842855 12.1566 0 10.1217 0 8C0 5.87827 0.842855 3.84344 2.34315 2.34315C3.84344 0.842855 5.87827 0 8 0C10.1217 0 12.1566 0.842855 13.6569 2.34315C15.1571 3.84344 16 5.87827 16 8C16 10.1217 15.1571 12.1566 13.6569 13.6569C12.1566 15.1571 10.1217 16 8 16ZM9.6 14.2C10.8395 13.8789 11.9542 13.1933 12.8 12.232V7.2C12.3757 7.2 11.9687 7.03143 11.6686 6.73137C11.3686 6.43131 11.2 6.02435 11.2 5.6V2.456C10.4616 2.03131 9.6455 1.75926 8.8 1.656V2.4C8.8 2.82435 8.63143 3.23131 8.33137 3.53137C8.03131 3.83143 7.62435 4 7.2 4V4.8C7.2 5.22435 7.03143 5.63131 6.73137 5.93137C6.43131 6.23143 6.02435 6.4 5.6 6.4V8H8C8.42435 8 8.83131 8.16857 9.13137 8.46863C9.43143 8.76869 9.6 9.17565 9.6 9.6V14.2ZM6.4 14.2V12C5.97565 12 5.56869 11.8314 5.26863 11.5314C4.96857 11.2313 4.8 10.8243 4.8 10.4V9.6H4.4C4.08174 9.6 3.77652 9.47357 3.55147 9.24853C3.32643 9.02348 3.2 8.71826 3.2 8.4V6.4H1.8C1.377 8.04428 1.62384 9.78922 2.4863 11.2517C3.34877 12.7141 4.75636 13.7745 6.4 14.2Z" fill="black"/>
</svg>
