<svg width="18" height="18" viewBox="0 0 18 18" fill="none" xmlns="http://www.w3.org/2000/svg">
<path d="M16.51 8H8.98V11H13.28C13.1 12 12.54 12.48 11.68 13.04V15.05H14.28C15.0665 14.2913 15.6847 13.3758 16.0947 12.3629C16.5047 11.3499 16.6973 10.2621 16.66 9.17C16.66 8.6 16.61 8.51 16.51 7.99V8Z" fill="#4285F4"/>
<path d="M8.98 17C11.14 17 12.95 16.28 14.28 15.06L11.68 13.06C11.0627 13.4612 10.3613 13.7149 9.63019 13.8017C8.89908 13.8885 8.15782 13.8059 7.46373 13.5603C6.76964 13.3148 6.14134 12.9129 5.62742 12.3857C5.11351 11.8585 4.72775 11.2201 4.5 10.52H1.83V12.59C2.49572 13.9157 3.51694 15.0302 4.77958 15.809C6.04221 16.5878 7.49652 17.0001 8.98 17Z" fill="#34A853"/>
<path d="M4.5 10.52C4.17064 9.53343 4.17064 8.46657 4.5 7.48V5.41H1.83C1.27059 6.52404 0.979263 7.75339 0.979263 9C0.979263 10.2466 1.27059 11.476 1.83 12.59L4.5 10.52Z" fill="#FBBC05"/>
<path d="M8.98 4.18C10.15 4.18 11.21 4.58 12.04 5.38L14.34 3.08C13.4275 2.25346 12.3364 1.64871 11.1519 1.31283C9.9674 0.976946 8.72133 0.919002 7.51075 1.14351C6.30017 1.36801 5.15774 1.8689 4.17243 2.60719C3.18711 3.34547 2.3855 4.30121 1.83 5.4L4.5 7.49C4.80755 6.54035 5.40528 5.71111 6.20898 5.1191C7.01269 4.52709 7.98187 4.20213 8.98 4.19V4.18Z" fill="#EA4335"/>
</svg>
