<svg width="14" height="14" viewBox="0 0 14 14" fill="none" xmlns="http://www.w3.org/2000/svg">
<path d="M7 1C3.74 1 1 3.77 1 7C1 10.26 3.77 13 7 13C10.27 13 13 10.27 13 7C13 3.73 10.27 1 7 1ZM8.06 10.06C8.04 10.69 7.58 11.08 6.96 11.06C6.39 11.04 5.93 10.63 5.95 10C5.97 9.37 6.45 8.96 7.03 8.98C7.63 9 8.08 9.43 8.06 10.06ZM8.79 6.99L8.32 7.29C8.12 7.44 7.96 7.65 7.88 7.89C7.83364 8.10379 7.80686 8.32135 7.8 8.54C7.8 8.58 7.77 8.68 7.64 8.68H6.24C6.1 8.68 6.08 8.59 6.08 8.55C6.07 8.05 6.19 7.56 6.44 7.13C6.79283 6.70376 7.21967 6.34468 7.7 6.07C7.85 5.97 7.91 5.86 8 5.74C8.18 5.54 8.28 5.27 8.28 5C8.29 4.33 7.75 3.86 7.1 3.86C6.2 3.86 5.92 4.56 5.92 5.32H4.2C4.2 4.15 4.51 3.4 5.18 2.96C5.73838 2.64899 6.37127 2.49682 7.01 2.52C7.89 2.52 8.59 2.68 9.21 3.14C9.79 3.56 10.09 4.16 10.09 4.96C10.09 5.46 9.92 5.86 9.66 6.2C9.51 6.4 9.22 6.67 8.8 6.99H8.79Z" fill="#6A737C"/>
</svg>
