<svg width="18" height="18" viewBox="0 0 18 18" fill="none" xmlns="http://www.w3.org/2000/svg">
<path d="M9.86 0.89C9.75299 0.767022 9.62085 0.668425 9.47249 0.600859C9.32414 0.533294 9.16302 0.498332 9 0.498332C8.83698 0.498332 8.67586 0.533294 8.5275 0.600859C8.37915 0.668425 8.24701 0.767022 8.14 0.89L7.64 1.47C7.34 1.82 6.85 1.95 6.41 1.8L5.69 1.55C5.5365 1.49687 5.37343 1.47716 5.2117 1.49217C5.04997 1.50719 4.89331 1.5566 4.75223 1.63708C4.61114 1.71757 4.48889 1.82727 4.39365 1.95885C4.29841 2.09042 4.23238 2.24083 4.2 2.4L4.06 3.16C3.96 3.61 3.61 3.96 3.16 4.06L2.4 4.2C1.73 4.34 1.32 5.03 1.55 5.69L1.8 6.41C1.95 6.85 1.82 7.33 1.47 7.64L0.889998 8.14C0.76702 8.24701 0.668422 8.37915 0.600857 8.52751C0.533291 8.67586 0.498329 8.83698 0.498329 9C0.498329 9.16302 0.533291 9.32414 0.600857 9.47249C0.668422 9.62085 0.76702 9.75299 0.889998 9.86L1.47 10.36C1.82 10.66 1.95 11.15 1.8 11.59L1.55 12.31C1.32 12.97 1.73 13.66 2.4 13.8L3.16 13.94C3.61 14.04 3.96 14.39 4.06 14.84L4.2 15.6C4.34 16.27 5.03 16.68 5.69 16.45L6.41 16.2C6.85 16.05 7.33 16.18 7.64 16.53L8.14 17.11C8.6 17.63 9.4 17.63 9.86 17.11L10.36 16.53C10.66 16.18 11.15 16.05 11.59 16.2L12.31 16.45C12.97 16.68 13.66 16.27 13.8 15.6L13.94 14.84C14.04 14.39 14.39 14.04 14.84 13.94L15.6 13.8C16.27 13.66 16.68 12.97 16.45 12.31L16.2 11.59C16.05 11.15 16.18 10.67 16.53 10.36L17.11 9.86C17.63 9.4 17.63 8.6 17.11 8.14L16.53 7.64C16.18 7.34 16.05 6.85 16.2 6.41L16.45 5.69C16.5031 5.53651 16.5228 5.37343 16.5078 5.2117C16.4928 5.04997 16.4434 4.89331 16.3629 4.75223C16.2824 4.61114 16.1727 4.48889 16.0411 4.39365C15.9096 4.29841 15.7592 4.23238 15.6 4.2L14.84 4.06C14.39 3.96 14.04 3.61 13.94 3.16L13.8 2.4C13.7676 2.24083 13.7016 2.09042 13.6064 1.95885C13.5111 1.82727 13.3889 1.71757 13.2478 1.63708C13.1067 1.5566 12.95 1.50719 12.7883 1.49217C12.6266 1.47716 12.4635 1.49687 12.31 1.55L11.59 1.8C11.15 1.95 10.67 1.82 10.36 1.47L9.86 0.89ZM9.37 3.56L10.6 6.6C10.65 6.75 10.79 6.84 10.94 6.85L14.2 7.07C14.56 7.1 14.7 7.55 14.43 7.78L11.93 9.88C11.8715 9.92687 11.8274 9.98922 11.8027 10.0599C11.7779 10.1307 11.7735 10.2069 11.79 10.28L12.59 13.44C12.6104 13.5176 12.6069 13.5995 12.5801 13.6752C12.5533 13.7508 12.5043 13.8166 12.4396 13.864C12.3749 13.9115 12.2975 13.9384 12.2173 13.9412C12.1371 13.9441 12.0579 13.9227 11.99 13.88L9.2 12.13C9.13687 12.0911 9.06417 12.0704 8.99 12.0704C8.91583 12.0704 8.84312 12.0911 8.78 12.13L6.01 13.87C5.9421 13.9127 5.86291 13.9341 5.78273 13.9312C5.70254 13.9284 5.62507 13.9015 5.56036 13.854C5.49566 13.8066 5.44673 13.7408 5.41991 13.6652C5.3931 13.5895 5.38964 13.5076 5.41 13.43L6.21 10.27C6.22761 10.1978 6.22478 10.1222 6.20182 10.0515C6.17885 9.98089 6.13667 9.91803 6.08 9.87L3.58 7.77C3.52111 7.71894 3.47842 7.65178 3.45718 7.57678C3.43594 7.50178 3.43707 7.42221 3.46044 7.34785C3.48381 7.27349 3.5284 7.20758 3.58872 7.15822C3.64905 7.10885 3.72248 7.07819 3.8 7.07L7.06 6.84C7.13434 6.83416 7.20557 6.80766 7.26565 6.76349C7.32573 6.71931 7.37226 6.65922 7.4 6.59L8.62 3.56C8.65013 3.48664 8.7014 3.42389 8.76728 3.37973C8.83316 3.33557 8.91069 3.31199 8.99 3.31199C9.06931 3.31199 9.14683 3.33557 9.21271 3.37973C9.2786 3.42389 9.32986 3.48664 9.36 3.56H9.37Z" fill="#F48225"/>
</svg>
