<svg width="26" height="26" viewBox="0 0 26 26" fill="none" xmlns="http://www.w3.org/2000/svg">
<path d="M12 0.699997C12.1877 0.487184 12.4185 0.316743 12.6771 0.199997C12.9358 0.0832514 13.2163 0.0228729 13.5 0.0228729C13.7838 0.0228729 14.0643 0.0832514 14.3229 0.199997C14.5815 0.316743 14.8123 0.487184 15 0.699997L23.5 10.3C23.637 10.4398 23.7301 10.6167 23.7675 10.8088C23.8049 11.0009 23.7852 11.1998 23.7106 11.3808C23.6361 11.5618 23.5101 11.717 23.3482 11.8271C23.1863 11.9371 22.9957 11.9972 22.8 12H4.2C4.00428 11.9972 3.81366 11.9371 3.65179 11.8271C3.48992 11.717 3.3639 11.5618 3.28937 11.3808C3.21484 11.1998 3.19507 11.0009 3.23251 10.8088C3.26996 10.6167 3.36296 10.4398 3.5 10.3L12 0.699997Z" fill="#0A95FF"/>
<path opacity="0.5" d="M20.6 16H6.4L13.5 24L20.5 16H20.6ZM15 25.3C14.8123 25.5128 14.5815 25.6833 14.3229 25.8C14.0643 25.9167 13.7838 25.9771 13.5 25.9771C13.2163 25.9771 12.9358 25.9167 12.6771 25.8C12.4185 25.6833 12.1877 25.5128 12 25.3L3.5 15.7C3.36296 15.5602 3.26996 15.3833 3.23251 15.1912C3.19507 14.999 3.21484 14.8002 3.28937 14.6192C3.3639 14.4381 3.48992 14.283 3.65179 14.1729C3.81366 14.0629 4.00428 14.0027 4.2 14H22.8C22.9957 14.0027 23.1863 14.0629 23.3482 14.1729C23.5101 14.283 23.6361 14.4381 23.7106 14.6192C23.7852 14.8002 23.8049 14.999 23.7675 15.1912C23.7301 15.3833 23.637 15.5602 23.5 15.7L15 25.3Z" fill="#0A95FF"/>
</svg>
